<?xml version="1.0" standalone="no"?>
<!DOCTYPE svg PUBLIC "-//W3C//DTD SVG 20010904//EN"
 "http://www.w3.org/TR/2001/REC-SVG-20010904/DTD/svg10.dtd">
<svg version="1.0" xmlns="http://www.w3.org/2000/svg"
 width="500.000000pt" height="500.000000pt" viewBox="0 0 500.000000 500.000000"
 preserveAspectRatio="xMidYMid meet">
<metadata>
Created by potrace 1.14, written by Peter Selinger 2001-2017
</metadata>
<g transform="translate(0.000000,500.000000) scale(0.100000,-0.100000)"
fill="#000000" stroke="none">
<path d="M1543 3655 c-141 -31 -278 -136 -339 -260 -30 -61 -37 -87 -41 -158
-7 -106 13 -176 73 -258 60 -81 126 -127 321 -224 200 -99 233 -128 233 -203
0 -99 -64 -143 -208 -143 -97 0 -213 45 -340 135 -36 25 -45 28 -53 16 -5 -8
-43 -73 -85 -143 l-76 -128 22 -25 c35 -36 234 -132 325 -155 106 -28 318 -31
418 -6 93 23 205 77 255 122 49 44 106 151 122 232 7 32 10 92 8 134 -11 183
-128 301 -432 435 -125 55 -219 113 -236 145 -16 29 -7 95 17 121 28 32 93 58
148 58 86 0 248 -53 297 -97 10 -9 20 -14 22 -12 2 2 35 67 74 145 l70 141
-53 32 c-92 56 -317 113 -438 110 -23 0 -70 -7 -104 -14z"/>
<path d="M3085 3660 c-66 -11 -196 -53 -232 -77 -22 -15 -23 -21 -23 -129 l0
-114 -128 0 -128 0 -37 -62 c-35 -58 -87 -199 -87 -234 0 -12 30 -14 180 -14
l180 0 1 -37 c1 -35 2 -34 15 19 30 126 112 236 213 285 51 26 66 28 166 28
126 0 173 -16 243 -79 97 -88 145 -209 146 -366 0 -166 -43 -280 -141 -370
-62 -57 -120 -79 -223 -87 -134 -10 -255 42 -330 141 -44 58 -56 87 -75 171
-10 45 -14 52 -14 28 l-1 -33 -184 0 -184 0 14 -60 c17 -75 57 -173 89 -222
l25 -38 130 0 130 0 0 -121 0 -120 53 -23 c99 -44 183 -60 317 -60 231 1 390
64 542 216 165 165 235 356 225 612 -8 226 -70 370 -227 527 -81 82 -109 102
-190 142 -52 26 -122 54 -155 62 -76 19 -232 27 -310 15z"/>
</g>
</svg>
